Renner-900-BlackItalic.ufo
<glyph name="exclam" format="1">
  <advance width="370"/>
  <unicode hex="0021"/>
  <outline>
    <contour>
      <point x="188" y="700" type="line"/>
      <point x="428" y="700" type="line"/>
      <point x="309" y="250" type="line"/>
      <point x="149" y="250" type="line"/>
    </contour>
    <contour>
      <point x="80" y="75" type="curve" smooth="yes"/>
      <point x="91" y="138"/>
      <point x="147" y="180"/>
      <point x="217" y="180" type="curve" smooth="yes"/>
      <point x="287" y="180"/>
      <point x="327" y="138"/>
      <point x="316" y="75" type="curve" smooth="yes"/>
      <point x="305" y="12"/>
      <point x="250" y="-30"/>
      <point x="180" y="-30" type="curve" smooth="yes"/>
      <point x="110" y="-30"/>
      <point x="69" y="12"/>
    </contour>
  </outline>
</glyph>
<glyph name="numbersign" format="1">
  <advance width="705"/>
  <unicode hex="0023"/>
  <outline>
    <contour>
      <point x="145" y="395" type="line"/>
      <point x="172" y="550" type="line"/>
      <point x="767" y="550" type="line"/>
      <point x="740" y="395" type="line"/>
      <point x="576" y="395" type="line" smooth="yes"/>
      <point x="539" y="405" type="line" smooth="yes"/>
      <point x="327" y="405" type="line" smooth="yes"/>
      <point x="292" y="395" type="line" smooth="yes"/>
    </contour>
    <contour>
      <point x="62" y="155" type="line"/>
      <point x="90" y="310" type="line"/>
      <point x="237" y="310" type="line" smooth="yes"/>
      <point x="277" y="300" type="line" smooth="yes"/>
      <point x="525" y="300" type="line" smooth="yes"/>
      <point x="563" y="310" type="line" smooth="yes"/>
      <point x="685" y="310" type="line"/>
      <point x="657" y="155" type="line"/>
    </contour>
    <contour>
      <point x="608" y="700" type="line"/>
      <point x="773" y="700" type="line"/>
      <point x="480" y="0" type="line"/>
      <point x="315" y="0" type="line"/>
      <point x="408" y="222" type="line" smooth="yes"/>
      <point x="430" y="252" type="line" smooth="yes"/>
      <point x="515" y="452" type="line" smooth="yes"/>
      <point x="521" y="492" type="line" smooth="yes"/>
    </contour>
    <contour>
      <point x="348" y="700" type="line"/>
      <point x="513" y="700" type="line"/>
      <point x="426" y="492" type="line" smooth="yes"/>
      <point x="398" y="450" type="line" smooth="yes"/>
      <point x="317" y="256" type="line" smooth="yes"/>
      <point x="315" y="226" type="line" smooth="yes"/>
      <point x="220" y="0" type="line"/>
      <point x="55" y="0" type="line"/>
    </contour>
  </outline>
</glyph>
<glyph name="plus" format="1">
  <advance width="710"/>
  <unicode hex="002B"/>
  <outline>
    <contour>
      <point x="98" y="185" type="line"/>
      <point x="130" y="370" type="line"/>
      <point x="710" y="370" type="line"/>
      <point x="678" y="185" type="line"/>
    </contour>
    <contour>
      <point x="355" y="565" type="line"/>
      <point x="555" y="565" type="line"/>
      <point x="453" y="-10" type="line"/>
      <point x="253" y="-10" type="line"/>
    </contour>
  </outline>
</glyph>
<glyph name="comma" format="1">
  <advance width="333"/>
  <unicode hex="002C"/>
  <outline>
    <contour>
      <point x="122" y="110" type="line"/>
      <point x="311" y="76" type="line"/>
      <point x="132" y="-174" type="line"/>
      <point x="-11" y="-149" type="line"/>
    </contour>
  </outline>
</glyph>
<glyph name="slash" format="1">
  <advance width="665"/>
  <unicode hex="002F"/>
  <outline>
    <contour>
      <point x="588" y="700" type="line"/>
      <point x="773" y="700" type="line"/>
      <point x="184" y="-150" type="line"/>
      <point x="-11" y="-150" type="line"/>
    </contour>
  </outline>
</glyph>
<glyph name="four" format="1">
  <advance width="768"/>
  <unicode hex="0034"/>
  <outline>
    <contour>
      <point x="30" y="115" type="line"/>
      <point x="237" y="265" type="line"/>
      <point x="550" y="265" type="line" smooth="yes"/>
      <point x="573" y="300" type="line" smooth="yes"/>
      <point x="771" y="300" type="line"/>
      <point x="738" y="115" type="line"/>
    </contour>
    <contour>
      <point x="264" y="195" type="line"/>
      <point x="30" y="115" type="line"/>
      <point x="551" y="700" type="line"/>
      <point x="731" y="700" type="line"/>
      <point x="608" y="0" type="line"/>
      <point x="378" y="0" type="line"/>
      <point x="405" y="151" type="line" smooth="yes"/>
      <point x="437" y="162" type="line" smooth="yes"/>
      <point x="482" y="421" type="line"/>
    </contour>
  </outline>
</glyph>
<glyph name="nine" format="1">
  <advance width="726"/>
  <unicode hex="0039"/>
  <outline>
    <contour>
      <point x="535" y="445" type="curve" smooth="yes"/>
      <point x="545" y="501"/>
      <point x="510" y="535"/>
      <point x="457" y="535" type="curve" smooth="yes"/>
      <point x="404" y="535"/>
      <point x="357" y="501"/>
      <point x="347" y="445" type="curve" smooth="yes"/>
      <point x="337" y="389"/>
      <point x="372" y="353"/>
      <point x="425" y="353" type="curve" smooth="yes"/>
      <point x="478" y="353"/>
      <point x="525" y="389"/>
    </contour>
    <contour>
      <point x="392" y="5" type="line"/>
      <point x="113" y="5" type="line"/>
      <point x="385" y="236" type="line"/>
      <point x="441" y="263" type="line"/>
      <point x="390" y="225"/>
      <point x="363" y="217"/>
      <point x="310" y="217" type="curve" smooth="yes"/>
      <point x="211" y="217"/>
      <point x="102" y="296"/>
      <point x="128" y="445" type="curve" smooth="yes"/>
      <point x="161" y="634"/>
      <point x="320" y="720"/>
      <point x="490" y="720" type="curve" smooth="yes"/>
      <point x="660" y="720"/>
      <point x="787" y="634"/>
      <point x="754" y="445" type="curve" smooth="yes"/>
      <point x="739" y="358"/>
      <point x="680" y="288"/>
      <point x="611" y="220" type="curve" smooth="yes"/>
    </contour>
  </outline>
</glyph>
<glyph name="question" format="1">
  <advance width="669"/>
  <unicode hex="003F"/>
  <outline>
    <contour>
      <point x="214" y="70" type="curve" smooth="yes"/>
      <point x="223" y="123"/>
      <point x="280" y="170"/>
      <point x="350" y="170" type="curve" smooth="yes"/>
      <point x="420" y="170"/>
      <point x="459" y="123"/>
      <point x="450" y="70" type="curve" smooth="yes"/>
      <point x="441" y="17"/>
      <point x="385" y="-30"/>
      <point x="315" y="-30" type="curve" smooth="yes"/>
      <point x="245" y="-30"/>
      <point x="205" y="17"/>
    </contour>
    <contour>
      <point x="291" y="400" type="line"/>
      <point x="481" y="400" type="line"/>
      <point x="439" y="220" type="line"/>
      <point x="279" y="220" type="line"/>
    </contour>
    <contour>
      <point x="511" y="500" type="curve" smooth="yes"/>
      <point x="518" y="541"/>
      <point x="491" y="565"/>
      <point x="431" y="565" type="curve" smooth="yes"/>
      <point x="374" y="565"/>
      <point x="301" y="536"/>
      <point x="249" y="476" type="curve"/>
      <point x="144" y="587" type="line"/>
      <point x="246" y="677"/>
      <point x="350" y="725"/>
      <point x="469" y="725" type="curve" smooth="yes"/>
      <point x="604" y="725"/>
      <point x="733" y="649"/>
      <point x="707" y="500" type="curve" smooth="yes"/>
      <point x="677" y="331"/>
      <point x="469" y="270"/>
      <point x="354" y="270" type="curve"/>
      <point x="327" y="400" type="line"/>
      <point x="447" y="400"/>
      <point x="505" y="464"/>
    </contour>
  </outline>
</glyph>
<glyph name="at" format="1">
  <advance width="770"/>
  <unicode hex="0040"/>
  <outline>
    <contour>
      <point x="402" y="320" type="curve" smooth="yes"/>
      <point x="396" y="284"/>
      <point x="403" y="265"/>
      <point x="416" y="265" type="curve" smooth="yes"/>
      <point x="441" y="265"/>
      <point x="472" y="314"/>
      <point x="480" y="360" type="curve" smooth="yes"/>
      <point x="487" y="401"/>
      <point x="482" y="415"/>
      <point x="467" y="415" type="curve" smooth="yes"/>
      <point x="437" y="415"/>
      <point x="410" y="366"/>
    </contour>
    <contour>
      <point x="255" y="310" type="curve" smooth="yes"/>
      <point x="280" y="449"/>
      <point x="366" y="530"/>
      <point x="441" y="530" type="curve" smooth="yes"/>
      <point x="506" y="530"/>
      <point x="552" y="459"/>
      <point x="536" y="370" type="curve" smooth="yes"/>
      <point x="511" y="231"/>
      <point x="429" y="150"/>
      <point x="354" y="150" type="curve" smooth="yes"/>
      <point x="269" y="150"/>
      <point x="238" y="211"/>
    </contour>
    <contour>
      <point x="66" y="320" type="curve" smooth="yes"/>
      <point x="106" y="549"/>
      <point x="310" y="730"/>
      <point x="544" y="730" type="curve" smooth="yes"/>
      <point x="758" y="730"/>
      <point x="859" y="559"/>
      <point x="829" y="390" type="curve" smooth="yes"/>
      <point x="797" y="211"/>
      <point x="691" y="140"/>
      <point x="586" y="140" type="curve" smooth="yes"/>
      <point x="515" y="140"/>
      <point x="460" y="194"/>
      <point x="482" y="260" type="curve"/>
      <point x="474" y="310" type="line"/>
      <point x="527" y="520" type="line"/>
      <point x="668" y="520" type="line"/>
      <point x="615" y="319" type="line" smooth="yes"/>
      <point x="613" y="312"/>
      <point x="609" y="300"/>
      <point x="608" y="292" type="curve" smooth="yes"/>
      <point x="604" y="268"/>
      <point x="608" y="256"/>
      <point x="621" y="256" type="curve" smooth="yes"/>
      <point x="641" y="256"/>
      <point x="674" y="274"/>
      <point x="694" y="390" type="curve" smooth="yes"/>
      <point x="716" y="513"/>
      <point x="661" y="610"/>
      <point x="523" y="610" type="curve" smooth="yes"/>
      <point x="355" y="610"/>
      <point x="232" y="493"/>
      <point x="201" y="320" type="curve" smooth="yes"/>
      <point x="176" y="177"/>
      <point x="232" y="85"/>
      <point x="400" y="85" type="curve" smooth="yes"/>
      <point x="470" y="85"/>
      <point x="524" y="103"/>
      <point x="582" y="125" type="curve"/>
      <point x="601" y="15" type="line"/>
      <point x="535" y="-17"/>
      <point x="453" y="-35"/>
      <point x="359" y="-35" type="curve" smooth="yes"/>
      <point x="125" y="-35"/>
      <point x="31" y="121"/>
    </contour>
  </outline>
</glyph>
<glyph name="E" format="1">
  <advance width="635"/>
  <unicode hex="0045"/>
  <outline>
    <contour>
      <point x="222" y="0" type="line"/>
      <point x="253" y="175" type="line"/>
      <point x="606" y="175" type="line"/>
      <point x="575" y="0" type="line"/>
    </contour>
    <contour>
      <point x="315" y="525" type="line"/>
      <point x="345" y="700" type="line"/>
      <point x="698" y="700" type="line"/>
      <point x="668" y="525" type="line"/>
    </contour>
    <contour>
      <point x="270" y="275" type="line"/>
      <point x="300" y="445" type="line"/>
      <point x="633" y="445" type="line"/>
      <point x="603" y="275" type="line"/>
    </contour>
    <contour>
      <point x="193" y="700" type="line"/>
      <point x="403" y="700" type="line"/>
      <point x="280" y="0" type="line"/>
      <point x="70" y="0" type="line"/>
    </contour>
  </outline>
</glyph>
<glyph name="H" format="1">
  <advance width="830"/>
  <unicode hex="0048"/>
  <outline>
    <contour>
      <point x="164" y="265" type="line"/>
      <point x="198" y="460" type="line"/>
      <point x="758" y="460" type="line"/>
      <point x="724" y="265" type="line"/>
    </contour>
    <contour>
      <point x="663" y="700" type="line"/>
      <point x="883" y="700" type="line"/>
      <point x="760" y="0" type="line"/>
      <point x="540" y="0" type="line"/>
    </contour>
    <contour>
      <point x="193" y="700" type="line"/>
      <point x="413" y="700" type="line"/>
      <point x="290" y="0" type="line"/>
      <point x="70" y="0" type="line"/>
    </contour>
  </outline>
</glyph>
<glyph name="bracketright" format="1">
  <advance width="400"/>
  <unicode hex="005D"/>
  <outline>
    <contour>
      <point x="111" y="-55" type="line"/>
      <point x="229" y="615" type="line"/>
      <point x="128" y="615" type="line"/>
      <point x="158" y="780" type="line"/>
      <point x="453" y="780" type="line"/>
      <point x="276" y="-220" type="line"/>
      <point x="-19" y="-220" type="line"/>
      <point x="10" y="-55" type="line"/>
    </contour>
  </outline>
</glyph>
<glyph name="t" format="1">
  <advance width="365"/>
  <unicode hex="0074"/>
  <outline>
    <contour>
      <point x="86" y="460" type="line"/>
      <point x="441" y="460" type="line"/>
      <point x="414" y="305" type="line"/>
      <point x="59" y="305" type="line"/>
    </contour>
    <contour>
      <point x="199" y="620" type="line"/>
      <point x="384" y="620" type="line"/>
      <point x="275" y="0" type="line"/>
      <point x="90" y="0" type="line"/>
    </contour>
  </outline>
</glyph>
<glyph name="asciitilde" format="1">
  <advance width="575"/>
  <unicode hex="007E"/>
  <outline>
    <contour>
      <point x="193" y="156" type="curve"/>
      <point x="46" y="161" type="line"/>
      <point x="45" y="168"/>
      <point x="46" y="176"/>
      <point x="48" y="185" type="curve" smooth="yes"/>
      <point x="55" y="226"/>
      <point x="69" y="261"/>
      <point x="103" y="295" type="curve" smooth="yes"/>
      <point x="137" y="329"/>
      <point x="175" y="357"/>
      <point x="257" y="357" type="curve" smooth="yes"/>
      <point x="306" y="357"/>
      <point x="328" y="340"/>
      <point x="374" y="308" type="curve" smooth="yes"/>
      <point x="402" y="288"/>
      <point x="420" y="272"/>
      <point x="438" y="272" type="curve" smooth="yes"/>
      <point x="456" y="272"/>
      <point x="468" y="290"/>
      <point x="471" y="306" type="curve" smooth="yes"/>
      <point x="473" y="319"/>
      <point x="471" y="333"/>
      <point x="469" y="343" type="curve"/>
      <point x="616" y="338" type="line"/>
      <point x="617" y="330"/>
      <point x="617" y="320"/>
      <point x="615" y="310" type="curve" smooth="yes"/>
      <point x="608" y="270"/>
      <point x="595" y="231"/>
      <point x="562" y="198" type="curve" smooth="yes"/>
      <point x="529" y="165"/>
      <point x="495" y="142"/>
      <point x="429" y="142" type="curve" smooth="yes"/>
      <point x="385" y="142"/>
      <point x="355" y="161"/>
      <point x="308" y="193" type="curve" smooth="yes"/>
      <point x="280" y="213"/>
      <point x="258" y="228"/>
      <point x="233" y="228" type="curve" smooth="yes"/>
      <point x="203" y="228"/>
      <point x="193" y="202"/>
      <point x="191" y="188" type="curve" smooth="yes"/>
      <point x="188" y="171"/>
      <point x="191" y="164"/>
    </contour>
  </outline>
</glyph>
<glyph name="currency" format="1">
  <advance width="575"/>
  <unicode hex="00A4"/>
  <outline>
    <contour>
      <point x="104" y="503" type="line"/>
      <point x="186" y="573" type="line"/>
      <point x="271" y="469" type="line"/>
      <point x="190" y="400" type="line"/>
    </contour>
    <contour>
      <point x="90" y="27" type="line"/>
      <point x="32" y="97" type="line"/>
      <point x="154" y="200" type="line"/>
      <point x="211" y="131" type="line"/>
    </contour>
    <contour>
      <point x="528" y="400" type="line"/>
      <point x="470" y="469" type="line"/>
      <point x="592" y="573" type="line"/>
      <point x="649" y="503" type="line"/>
    </contour>
    <contour>
      <point x="410" y="131" type="line"/>
      <point x="492" y="200" type="line"/>
      <point x="577" y="97" type="line"/>
      <point x="496" y="27" type="line"/>
    </contour>
    <contour>
      <point x="103" y="300" type="curve" smooth="yes"/>
      <point x="128" y="439"/>
      <point x="248" y="540"/>
      <point x="383" y="540" type="curve" smooth="yes"/>
      <point x="518" y="540"/>
      <point x="604" y="439"/>
      <point x="579" y="300" type="curve" smooth="yes"/>
      <point x="554" y="161"/>
      <point x="434" y="60"/>
      <point x="299" y="60" type="curve" smooth="yes"/>
      <point x="164" y="60"/>
      <point x="78" y="161"/>
    </contour>
    <contour>
      <point x="274" y="300" type="curve" smooth="yes"/>
      <point x="267" y="259"/>
      <point x="289" y="235"/>
      <point x="329" y="235" type="curve" smooth="yes"/>
      <point x="369" y="235"/>
      <point x="401" y="259"/>
      <point x="408" y="300" type="curve" smooth="yes"/>
      <point x="415" y="341"/>
      <point x="392" y="365"/>
      <point x="352" y="365" type="curve" smooth="yes"/>
      <point x="312" y="365"/>
      <point x="281" y="341"/>
    </contour>
  </outline>
</glyph>
<glyph name="brokenbar" format="1">
  <advance width="400"/>
  <unicode hex="00A6"/>
  <outline>
    <contour>
      <point x="223" y="695" type="line"/>
      <point x="423" y="695" type="line"/>
      <point x="373" y="415" type="line"/>
      <point x="173" y="415" type="line"/>
    </contour>
    <contour>
      <point x="350" y="285" type="line"/>
      <point x="301" y="5" type="line"/>
      <point x="101" y="5" type="line"/>
      <point x="150" y="285" type="line"/>
    </contour>
  </outline>
</glyph>
<glyph name="dieresis" format="1">
  <advance width="536"/>
  <unicode hex="00A8"/>
  <outline>
    <contour>
      <point x="393" y="615" type="curve" smooth="yes"/>
      <point x="404" y="678"/>
      <point x="462" y="730"/>
      <point x="532" y="730" type="curve" smooth="yes"/>
      <point x="602" y="730"/>
      <point x="640" y="678"/>
      <point x="629" y="615" type="curve" smooth="yes"/>
      <point x="618" y="552"/>
      <point x="561" y="500"/>
      <point x="491" y="500" type="curve" smooth="yes"/>
      <point x="421" y="500"/>
      <point x="382" y="552"/>
    </contour>
    <contour>
      <point x="123" y="615" type="curve" smooth="yes"/>
      <point x="134" y="678"/>
      <point x="192" y="730"/>
      <point x="262" y="730" type="curve" smooth="yes"/>
      <point x="332" y="730"/>
      <point x="370" y="678"/>
      <point x="359" y="615" type="curve" smooth="yes"/>
      <point x="348" y="552"/>
      <point x="291" y="500"/>
      <point x="221" y="500" type="curve" smooth="yes"/>
      <point x="151" y="500"/>
      <point x="112" y="552"/>
    </contour>
  </outline>
</glyph>
<glyph name="ordfeminine" format="1">
  <advance width="290"/>
  <unicode hex="00AA"/>
  <outline>
    <contour>
      <point x="207" y="529" type="curve" smooth="yes"/>
      <point x="205" y="517"/>
      <point x="215" y="513"/>
      <point x="227" y="513" type="curve" smooth="yes"/>
      <point x="247" y="513"/>
      <point x="270" y="522"/>
      <point x="276" y="555" type="curve"/>
      <point x="279" y="525" type="line"/>
      <point x="271" y="481"/>
      <point x="230" y="455"/>
      <point x="182" y="455" type="curve" smooth="yes"/>
      <point x="130" y="455"/>
      <point x="101" y="481"/>
      <point x="109" y="525" type="curve" smooth="yes"/>
      <point x="117" y="569"/>
      <point x="161" y="597"/>
      <point x="221" y="597" type="curve" smooth="yes"/>
      <point x="250" y="597"/>
      <point x="286" y="589"/>
      <point x="296" y="577" type="curve"/>
      <point x="288" y="533" type="line"/>
      <point x="276" y="544"/>
      <point x="264" y="550"/>
      <point x="240" y="550" type="curve" smooth="yes"/>
      <point x="223" y="550"/>
      <point x="209" y="541"/>
    </contour>
    <contour>
      <point x="174" y="612" type="curve"/>
      <point x="156" y="680" type="line"/>
      <point x="190" y="692"/>
      <point x="234" y="705"/>
      <point x="276" y="705" type="curve" smooth="yes"/>
      <point x="344" y="705"/>
      <point x="390" y="678"/>
      <point x="381" y="628" type="curve" smooth="yes"/>
      <point x="351" y="460" type="line"/>
      <point x="259" y="460" type="line"/>
      <point x="283" y="596" type="line" smooth="yes"/>
      <point x="286" y="614"/>
      <point x="278" y="630"/>
      <point x="253" y="630" type="curve" smooth="yes"/>
      <point x="220" y="630"/>
      <point x="186" y="618"/>
    </contour>
  </outline>
</glyph>
<glyph name="guillemotleft" format="1">
  <advance width="560"/>
  <unicode hex="00AB"/>
  <outline>
    <contour>
      <point x="181" y="235" type="line"/>
      <point x="65" y="255" type="line"/>
      <point x="282" y="520" type="line"/>
      <point x="388" y="445" type="line"/>
    </contour>
    <contour>
      <point x="65" y="255" type="line"/>
      <point x="190" y="285" type="line"/>
      <point x="321" y="65" type="line"/>
      <point x="188" y="-10" type="line"/>
    </contour>
    <contour>
      <point x="411" y="235" type="line"/>
      <point x="295" y="255" type="line"/>
      <point x="512" y="520" type="line"/>
      <point x="618" y="445" type="line"/>
    </contour>
    <contour>
      <point x="295" y="255" type="line"/>
      <point x="420" y="285" type="line"/>
      <point x="551" y="65" type="line"/>
      <point x="418" y="-10" type="line"/>
    </contour>
  </outline>
</glyph>
<glyph name="acute" format="1">
  <advance width="375"/>
  <unicode hex="00B4"/>
  <outline>
    <contour>
      <point x="445" y="650" type="line"/>
      <point x="238" y="500" type="line"/>
      <point x="137" y="550" type="line"/>
      <point x="315" y="710" type="line"/>
    </contour>
  </outline>
</glyph>
<glyph name="ordmasculine" format="1">
  <advance width="278"/>
  <unicode hex="00BA"/>
  <outline>
    <contour>
      <point x="120" y="580" type="curve" smooth="yes"/>
      <point x="133" y="654"/>
      <point x="199" y="700"/>
      <point x="279" y="700" type="curve" smooth="yes"/>
      <point x="359" y="700"/>
      <point x="411" y="654"/>
      <point x="398" y="580" type="curve" smooth="yes"/>
      <point x="385" y="506"/>
      <point x="317" y="460"/>
      <point x="237" y="460" type="curve" smooth="yes"/>
      <point x="157" y="460"/>
      <point x="107" y="506"/>
    </contour>
    <contour>
      <point x="220" y="580" type="curve" smooth="yes"/>
      <point x="215" y="552"/>
      <point x="231" y="538"/>
      <point x="251" y="538" type="curve" smooth="yes"/>
      <point x="271" y="538"/>
      <point x="292" y="552"/>
      <point x="297" y="580" type="curve" smooth="yes"/>
      <point x="302" y="608"/>
      <point x="286" y="623"/>
      <point x="266" y="623" type="curve" smooth="yes"/>
      <point x="246" y="623"/>
      <point x="225" y="608"/>
    </contour>
  </outline>
</glyph>
<glyph name="questiondown" format="1">
  <advance width="669"/>
  <unicode hex="00BF"/>
  <outline>
    <contour>
      <point x="578" y="630" type="curve" smooth="yes"/>
      <point x="569" y="577"/>
      <point x="512" y="530"/>
      <point x="442" y="530" type="curve" smooth="yes"/>
      <point x="372" y="530"/>
      <point x="333" y="577"/>
      <point x="342" y="630" type="curve" smooth="yes"/>
      <point x="351" y="683"/>
      <point x="408" y="730"/>
      <point x="478" y="730" type="curve" smooth="yes"/>
      <point x="548" y="730"/>
      <point x="587" y="683"/>
    </contour>
    <contour>
      <point x="502" y="300" type="line"/>
      <point x="312" y="300" type="line"/>
      <point x="354" y="480" type="line"/>
      <point x="514" y="480" type="line"/>
    </contour>
    <contour>
      <point x="281" y="200" type="curve" smooth="yes"/>
      <point x="274" y="159"/>
      <point x="302" y="135"/>
      <point x="362" y="135" type="curve" smooth="yes"/>
      <point x="419" y="135"/>
      <point x="491" y="164"/>
      <point x="543" y="224" type="curve"/>
      <point x="649" y="113" type="line"/>
      <point x="547" y="23"/>
      <point x="443" y="-25"/>
      <point x="324" y="-25" type="curve" smooth="yes"/>
      <point x="189" y="-25"/>
      <point x="59" y="51"/>
      <point x="85" y="200" type="curve" smooth="yes"/>
      <point x="115" y="369"/>
      <point x="324" y="430"/>
      <point x="439" y="430" type="curve"/>
      <point x="466" y="300" type="line"/>
      <point x="346" y="300"/>
      <point x="287" y="236"/>
    </contour>
  </outline>
</glyph>
<glyph name="Ecircumflex" format="1">
  <advance width="635"/>
  <unicode hex="00CA"/>
  <outline>
    <contour>
      <point x="222" y="0" type="line"/>
      <point x="253" y="175" type="line"/>
      <point x="606" y="175" type="line"/>
      <point x="575" y="0" type="line"/>
    </contour>
    <contour>
      <point x="315" y="525" type="line"/>
      <point x="345" y="700" type="line"/>
      <point x="698" y="700" type="line"/>
      <point x="668" y="525" type="line"/>
    </contour>
    <contour>
      <point x="270" y="275" type="line"/>
      <point x="300" y="445" type="line"/>
      <point x="633" y="445" type="line"/>
      <point x="603" y="275" type="line"/>
    </contour>
    <contour>
      <point x="193" y="700" type="line"/>
      <point x="403" y="700" type="line"/>
      <point x="280" y="0" type="line"/>
      <point x="70" y="0" type="line"/>
    </contour>
    <contour>
      <point x="480" y="895" type="line"/>
      <point x="353" y="800" type="line"/>
      <point x="310" y="840" type="line"/>
      <point x="495" y="980" type="line"/>
      <point x="630" y="840" type="line"/>
      <point x="573" y="800" type="line"/>
    </contour>
  </outline>
</glyph>
<glyph name="Edieresis" format="1">
  <advance width="635"/>
  <unicode hex="00CB"/>
  <outline>
    <contour>
      <point x="222" y="0" type="line"/>
      <point x="253" y="175" type="line"/>
      <point x="606" y="175" type="line"/>
      <point x="575" y="0" type="line"/>
    </contour>
    <contour>
      <point x="315" y="525" type="line"/>
      <point x="345" y="700" type="line"/>
      <point x="698" y="700" type="line"/>
      <point x="668" y="525" type="line"/>
    </contour>
    <contour>
      <point x="270" y="275" type="line"/>
      <point x="300" y="445" type="line"/>
      <point x="633" y="445" type="line"/>
      <point x="603" y="275" type="line"/>
    </contour>
    <contour>
      <point x="193" y="700" type="line"/>
      <point x="403" y="700" type="line"/>
      <point x="280" y="0" type="line"/>
      <point x="70" y="0" type="line"/>
    </contour>
    <contour>
      <point x="498" y="895" type="curve" smooth="yes"/>
      <point x="509" y="958"/>
      <point x="566" y="1010"/>
      <point x="636" y="1010" type="curve" smooth="yes"/>
      <point x="706" y="1010"/>
      <point x="745" y="958"/>
      <point x="734" y="895" type="curve" smooth="yes"/>
      <point x="723" y="832"/>
      <point x="666" y="780"/>
      <point x="596" y="780" type="curve" smooth="yes"/>
      <point x="526" y="780"/>
      <point x="487" y="832"/>
    </contour>
    <contour>
      <point x="228" y="895" type="curve" smooth="yes"/>
      <point x="239" y="958"/>
      <point x="296" y="1010"/>
      <point x="366" y="1010" type="curve" smooth="yes"/>
      <point x="436" y="1010"/>
      <point x="475" y="958"/>
      <point x="464" y="895" type="curve" smooth="yes"/>
      <point x="453" y="832"/>
      <point x="396" y="780"/>
      <point x="326" y="780" type="curve" smooth="yes"/>
      <point x="256" y="780"/>
      <point x="217" y="832"/>
    </contour>
  </outline>
</glyph>
<glyph name="Idieresis" format="1">
  <advance width="365"/>
  <unicode hex="00CF"/>
  <outline>
    <contour>
      <point x="193" y="700" type="line"/>
      <point x="418" y="700" type="line"/>
      <point x="295" y="0" type="line"/>
      <point x="70" y="0" type="line"/>
    </contour>
    <contour>
      <point x="358" y="895" type="curve" smooth="yes"/>
      <point x="369" y="958"/>
      <point x="426" y="1010"/>
      <point x="496" y="1010" type="curve" smooth="yes"/>
      <point x="566" y="1010"/>
      <point x="605" y="958"/>
      <point x="594" y="895" type="curve" smooth="yes"/>
      <point x="583" y="832"/>
      <point x="526" y="780"/>
      <point x="456" y="780" type="curve" smooth="yes"/>
      <point x="386" y="780"/>
      <point x="347" y="832"/>
    </contour>
    <contour>
      <point x="88" y="895" type="curve" smooth="yes"/>
      <point x="99" y="958"/>
      <point x="156" y="1010"/>
      <point x="226" y="1010" type="curve" smooth="yes"/>
      <point x="296" y="1010"/>
      <point x="335" y="958"/>
      <point x="324" y="895" type="curve" smooth="yes"/>
      <point x="313" y="832"/>
      <point x="256" y="780"/>
      <point x="186" y="780" type="curve" smooth="yes"/>
      <point x="116" y="780"/>
      <point x="77" y="832"/>
    </contour>
  </outline>
</glyph>
<glyph name="Otilde" format="1">
  <advance width="840"/>
  <unicode hex="00D5"/>
  <outline>
    <contour>
      <point x="325" y="350" type="curve" smooth="yes"/>
      <point x="307" y="247"/>
      <point x="353" y="178"/>
      <point x="451" y="178" type="curve" smooth="yes"/>
      <point x="549" y="178"/>
      <point x="621" y="247"/>
      <point x="639" y="350" type="curve" smooth="yes"/>
      <point x="657" y="453"/>
      <point x="615" y="522"/>
      <point x="512" y="522" type="curve" smooth="yes"/>
      <point x="414" y="522"/>
      <point x="343" y="453"/>
    </contour>
    <contour>
      <point x="92" y="350" type="curve" smooth="yes"/>
      <point x="131" y="574"/>
      <point x="328" y="720"/>
      <point x="547" y="720" type="curve" smooth="yes"/>
      <point x="771" y="720"/>
      <point x="911" y="574"/>
      <point x="872" y="350" type="curve" smooth="yes"/>
      <point x="833" y="126"/>
      <point x="644" y="-30"/>
      <point x="415" y="-30" type="curve" smooth="yes"/>
      <point x="186" y="-30"/>
      <point x="53" y="126"/>
    </contour>
    <contour>
      <point x="412" y="863" type="line"/>
      <point x="431" y="912"/>
      <point x="486" y="945"/>
      <point x="531" y="945" type="curve" smooth="yes"/>
      <point x="596" y="945"/>
      <point x="592" y="898"/>
      <point x="646" y="898" type="curve" smooth="yes"/>
      <point x="665" y="898"/>
      <point x="685" y="914"/>
      <point x="711" y="946" type="curve"/>
      <point x="749" y="903" type="line"/>
      <point x="726" y="866"/>
      <point x="680" y="830"/>
      <point x="630" y="830" type="curve" smooth="yes"/>
      <point x="575" y="830"/>
      <point x="563" y="877"/>
      <point x="518" y="877" type="curve" smooth="yes"/>
      <point x="477" y="877"/>
      <point x="462" y="841"/>
      <point x="459" y="826" type="curve"/>
    </contour>
  </outline>
</glyph>
<glyph name="icircumflex" format="1">
  <advance width="286"/>
  <unicode hex="00EE"/>
  <outline>
    <contour>
      <point x="130" y="460" type="line"/>
      <point x="317" y="460" type="line"/>
      <point x="236" y="0" type="line"/>
      <point x="49" y="0" type="line"/>
    </contour>
    <contour>
      <point x="250" y="611" type="line"/>
      <point x="156" y="531" type="line"/>
      <point x="31" y="621" type="line"/>
      <point x="276" y="761" type="line"/>
      <point x="471" y="621" type="line"/>
      <point x="316" y="531" type="line"/>
    </contour>
  </outline>
</glyph>
<glyph name="idieresis" format="1">
  <advance width="286"/>
  <unicode hex="00EF"/>
  <outline>
    <contour>
      <point x="130" y="460" type="line"/>
      <point x="317" y="460" type="line"/>
      <point x="236" y="0" type="line"/>
      <point x="49" y="0" type="line"/>
    </contour>
    <contour>
      <point x="274" y="646" type="curve" smooth="yes"/>
      <point x="285" y="709"/>
      <point x="342" y="761"/>
      <point x="412" y="761" type="curve" smooth="yes"/>
      <point x="482" y="761"/>
      <point x="521" y="709"/>
      <point x="510" y="646" type="curve" smooth="yes"/>
      <point x="499" y="583"/>
      <point x="442" y="531"/>
      <point x="372" y="531" type="curve" smooth="yes"/>
      <point x="302" y="531"/>
      <point x="263" y="583"/>
    </contour>
    <contour>
      <point x="4" y="646" type="curve" smooth="yes"/>
      <point x="15" y="709"/>
      <point x="72" y="761"/>
      <point x="142" y="761" type="curve" smooth="yes"/>
      <point x="212" y="761"/>
      <point x="251" y="709"/>
      <point x="240" y="646" type="curve" smooth="yes"/>
      <point x="229" y="583"/>
      <point x="172" y="531"/>
      <point x="102" y="531" type="curve" smooth="yes"/>
      <point x="32" y="531"/>
      <point x="-7" y="583"/>
    </contour>
  </outline>
</glyph>
<glyph name="odieresis" format="1">
  <advance width="616"/>
  <unicode hex="00F6"/>
  <outline>
    <contour>
      <point x="71" y="230" type="curve" smooth="yes"/>
      <point x="97" y="379"/>
      <point x="231" y="471"/>
      <point x="391" y="471" type="curve" smooth="yes"/>
      <point x="551" y="471"/>
      <point x="653" y="379"/>
      <point x="627" y="230" type="curve" smooth="yes"/>
      <point x="601" y="81"/>
      <point x="466" y="-10"/>
      <point x="306" y="-10" type="curve" smooth="yes"/>
      <point x="146" y="-10"/>
      <point x="45" y="81"/>
    </contour>
    <contour>
      <point x="272" y="230" type="curve" smooth="yes"/>
      <point x="262" y="174"/>
      <point x="294" y="145"/>
      <point x="334" y="145" type="curve" smooth="yes"/>
      <point x="374" y="145"/>
      <point x="416" y="174"/>
      <point x="426" y="230" type="curve" smooth="yes"/>
      <point x="436" y="286"/>
      <point x="404" y="316"/>
      <point x="364" y="316" type="curve" smooth="yes"/>
      <point x="324" y="316"/>
      <point x="282" y="286"/>
    </contour>
    <contour>
      <point x="439" y="646" type="curve" smooth="yes"/>
      <point x="450" y="709"/>
      <point x="507" y="761"/>
      <point x="577" y="761" type="curve" smooth="yes"/>
      <point x="647" y="761"/>
      <point x="686" y="709"/>
      <point x="675" y="646" type="curve" smooth="yes"/>
      <point x="664" y="583"/>
      <point x="607" y="531"/>
      <point x="537" y="531" type="curve" smooth="yes"/>
      <point x="467" y="531"/>
      <point x="428" y="583"/>
    </contour>
    <contour>
      <point x="169" y="646" type="curve" smooth="yes"/>
      <point x="180" y="709"/>
      <point x="237" y="761"/>
      <point x="307" y="761" type="curve" smooth="yes"/>
      <point x="377" y="761"/>
      <point x="416" y="709"/>
      <point x="405" y="646" type="curve" smooth="yes"/>
      <point x="394" y="583"/>
      <point x="337" y="531"/>
      <point x="267" y="531" type="curve" smooth="yes"/>
      <point x="197" y="531"/>
      <point x="158" y="583"/>
    </contour>
  </outline>
</glyph>
<glyph name="udieresis" format="1">
  <advance width="605"/>
  <unicode hex="00FC"/>
  <outline>
    <contour>
      <point x="360" y="0" type="line"/>
      <point x="441" y="460" type="line"/>
      <point x="636" y="460" type="line"/>
      <point x="555" y="0" type="line"/>
    </contour>
    <contour>
      <point x="287" y="180" type="line" smooth="yes"/>
      <point x="280" y="139"/>
      <point x="283" y="114"/>
      <point x="323" y="114" type="curve" smooth="yes"/>
      <point x="358" y="114"/>
      <point x="384" y="134"/>
      <point x="392" y="180" type="curve"/>
      <point x="420" y="190" type="line"/>
      <point x="401" y="81"/>
      <point x="341" y="-11"/>
      <point x="216" y="-11" type="curve" smooth="yes"/>
      <point x="91" y="-11"/>
      <point x="59" y="51"/>
      <point x="78" y="160" type="curve" smooth="yes"/>
      <point x="131" y="460" type="line"/>
      <point x="336" y="460" type="line"/>
    </contour>
    <contour>
      <point x="434" y="646" type="curve" smooth="yes"/>
      <point x="445" y="709"/>
      <point x="502" y="761"/>
      <point x="572" y="761" type="curve" smooth="yes"/>
      <point x="642" y="761"/>
      <point x="681" y="709"/>
      <point x="670" y="646" type="curve" smooth="yes"/>
      <point x="659" y="583"/>
      <point x="602" y="531"/>
      <point x="532" y="531" type="curve" smooth="yes"/>
      <point x="462" y="531"/>
      <point x="423" y="583"/>
    </contour>
    <contour>
      <point x="164" y="646" type="curve" smooth="yes"/>
      <point x="175" y="709"/>
      <point x="232" y="761"/>
      <point x="302" y="761" type="curve" smooth="yes"/>
      <point x="372" y="761"/>
      <point x="411" y="709"/>
      <point x="400" y="646" type="curve" smooth="yes"/>
      <point x="389" y="583"/>
      <point x="332" y="531"/>
      <point x="262" y="531" type="curve" smooth="yes"/>
      <point x="192" y="531"/>
      <point x="153" y="583"/>
    </contour>
  </outline>
</glyph>
<glyph name="ydieresis" format="1">
  <advance width="570"/>
  <unicode hex="00FF"/>
  <outline>
    <contour>
      <point x="666" y="460" type="line"/>
      <point x="246" y="-220" type="line"/>
      <point x="56" y="-220" type="line"/>
      <point x="202" y="20" type="line"/>
      <point x="66" y="460" type="line"/>
      <point x="276" y="460" type="line"/>
      <point x="360" y="85" type="line"/>
      <point x="255" y="85" type="line"/>
      <point x="471" y="460" type="line"/>
    </contour>
    <contour>
      <point x="416" y="646" type="curve" smooth="yes"/>
      <point x="427" y="709"/>
      <point x="484" y="761"/>
      <point x="554" y="761" type="curve" smooth="yes"/>
      <point x="624" y="761"/>
      <point x="663" y="709"/>
      <point x="652" y="646" type="curve" smooth="yes"/>
      <point x="641" y="583"/>
      <point x="584" y="531"/>
      <point x="514" y="531" type="curve" smooth="yes"/>
      <point x="444" y="531"/>
      <point x="405" y="583"/>
    </contour>
    <contour>
      <point x="146" y="646" type="curve" smooth="yes"/>
      <point x="157" y="709"/>
      <point x="214" y="761"/>
      <point x="284" y="761" type="curve" smooth="yes"/>
      <point x="354" y="761"/>
      <point x="393" y="709"/>
      <point x="382" y="646" type="curve" smooth="yes"/>
      <point x="371" y="583"/>
      <point x="314" y="531"/>
      <point x="244" y="531" type="curve" smooth="yes"/>
      <point x="174" y="531"/>
      <point x="135" y="583"/>
    </contour>
  </outline>
</glyph>
<glyph name="aogonek" format="1">
  <advance width="580"/>
  <unicode hex="0105"/>
  <outline>
    <contour>
      <point x="241" y="139" type="curve" smooth="yes"/>
      <point x="237" y="115"/>
      <point x="257" y="106"/>
      <point x="282" y="106" type="curve" smooth="yes"/>
      <point x="322" y="106"/>
      <point x="367" y="124"/>
      <point x="379" y="190" type="curve"/>
      <point x="384" y="130" type="line"/>
      <point x="368" y="41"/>
      <point x="286" y="-10"/>
      <point x="191" y="-10" type="curve" smooth="yes"/>
      <point x="86" y="-10"/>
      <point x="27" y="41"/>
      <point x="43" y="130" type="curve" smooth="yes"/>
      <point x="58" y="217"/>
      <point x="148" y="275"/>
      <point x="269" y="275" type="curve" smooth="yes"/>
      <point x="327" y="275"/>
      <point x="399" y="257"/>
      <point x="419" y="233" type="curve"/>
      <point x="404" y="147" type="line"/>
      <point x="380" y="169"/>
      <point x="355" y="180"/>
      <point x="307" y="180" type="curve" smooth="yes"/>
      <point x="273" y="180"/>
      <point x="245" y="163"/>
    </contour>
    <contour>
      <point x="174" y="298" type="curve"/>
      <point x="137" y="424" type="line"/>
      <point x="205" y="449"/>
      <point x="294" y="475"/>
      <point x="377" y="475" type="curve" smooth="yes"/>
      <point x="512" y="475"/>
      <point x="603" y="419"/>
      <point x="586" y="320" type="curve" smooth="yes"/>
      <point x="530" y="0" type="line"/>
      <point x="345" y="0" type="line"/>
      <point x="393" y="272" type="line" smooth="yes"/>
      <point x="399" y="307"/>
      <point x="382" y="333"/>
      <point x="332" y="333" type="curve" smooth="yes"/>
      <point x="266" y="333"/>
      <point x="198" y="309"/>
    </contour>
    <contour>
      <point x="482" y="-97" type="curve"/>
      <point x="501" y="-177" type="line"/>
      <point x="482" y="-197"/>
      <point x="449" y="-217"/>
      <point x="386" y="-217" type="curve" smooth="yes"/>
      <point x="332" y="-217"/>
      <point x="278" y="-186"/>
      <point x="290" y="-117" type="curve"/>
      <point x="406" y="-87" type="line"/>
      <point x="403" y="-105"/>
      <point x="408" y="-117"/>
      <point x="428" y="-117" type="curve" smooth="yes"/>
      <point x="444" y="-117"/>
      <point x="466" y="-110"/>
    </contour>
    <contour>
      <point x="406" y="-87" type="curve"/>
      <point x="290" y="-117" type="line"/>
      <point x="302" y="-48"/>
      <point x="382" y="-8"/>
      <point x="458" y="28" type="curve"/>
      <point x="495" y="3" type="line"/>
      <point x="437" y="-29"/>
      <point x="411" y="-60"/>
    </contour>
  </outline>
</glyph>
<glyph name="ccircumflex" format="1">
  <advance width="503"/>
  <unicode hex="0109"/>
  <outline>
    <contour>
      <point x="272" y="230" type="curve" smooth="yes"/>
      <point x="261" y="169"/>
      <point x="302" y="138"/>
      <point x="357" y="138" type="curve" smooth="yes"/>
      <point x="401" y="138"/>
      <point x="449" y="154"/>
      <point x="488" y="197" type="curve"/>
      <point x="457" y="21" type="line"/>
      <point x="422" y="3"/>
      <point x="384" y="-10"/>
      <point x="311" y="-10" type="curve" smooth="yes"/>
      <point x="146" y="-10"/>
      <point x="45" y="81"/>
      <point x="71" y="230" type="curve" smooth="yes"/>
      <point x="97" y="379"/>
      <point x="231" y="470"/>
      <point x="396" y="470" type="curve" smooth="yes"/>
      <point x="469" y="470"/>
      <point x="501" y="455"/>
      <point x="531" y="441" type="curve"/>
      <point x="500" y="264" type="line"/>
      <point x="477" y="307"/>
      <point x="424" y="322"/>
      <point x="390" y="322" type="curve" smooth="yes"/>
      <point x="335" y="322"/>
      <point x="281" y="281"/>
    </contour>
    <contour>
      <point x="371" y="611" type="line"/>
      <point x="277" y="531" type="line"/>
      <point x="152" y="621" type="line"/>
      <point x="397" y="761" type="line"/>
      <point x="592" y="621" type="line"/>
      <point x="437" y="531" type="line"/>
    </contour>
  </outline>
</glyph>
<glyph name="Edotaccent" format="1">
  <advance width="635"/>
  <unicode hex="0116"/>
  <outline>
    <contour>
      <point x="222" y="0" type="line"/>
      <point x="253" y="175" type="line"/>
      <point x="606" y="175" type="line"/>
      <point x="575" y="0" type="line"/>
    </contour>
    <contour>
      <point x="315" y="525" type="line"/>
      <point x="345" y="700" type="line"/>
      <point x="698" y="700" type="line"/>
      <point x="668" y="525" type="line"/>
    </contour>
    <contour>
      <point x="270" y="275" type="line"/>
      <point x="300" y="445" type="line"/>
      <point x="633" y="445" type="line"/>
      <point x="603" y="275" type="line"/>
    </contour>
    <contour>
      <point x="193" y="700" type="line"/>
      <point x="403" y="700" type="line"/>
      <point x="280" y="0" type="line"/>
      <point x="70" y="0" type="line"/>
    </contour>
    <contour>
      <point x="362" y="895" type="curve" smooth="yes"/>
      <point x="373" y="958"/>
      <point x="430" y="1010"/>
      <point x="500" y="1010" type="curve" smooth="yes"/>
      <point x="570" y="1010"/>
      <point x="609" y="958"/>
      <point x="598" y="895" type="curve" smooth="yes"/>
      <point x="587" y="832"/>
      <point x="530" y="780"/>
      <point x="460" y="780" type="curve" smooth="yes"/>
      <point x="390" y="780"/>
      <point x="351" y="832"/>
    </contour>
  </outline>
</glyph>
<glyph name="Gcircumflex" format="1">
  <advance width="838"/>
  <unicode hex="011C"/>
  <outline>
    <contour>
      <point x="472" y="240" type="line"/>
      <point x="501" y="400" type="line"/>
      <point x="873" y="400" type="line"/>
      <point x="734" y="240" type="line"/>
    </contour>
    <contour>
      <point x="873" y="400" type="line"/>
      <point x="851" y="161"/>
      <point x="679" y="-30"/>
      <point x="425" y="-30" type="curve" smooth="yes"/>
      <point x="191" y="-30"/>
      <point x="52" y="121"/>
      <point x="92" y="350" type="curve" smooth="yes"/>
      <point x="132" y="579"/>
      <point x="333" y="720"/>
      <point x="567" y="720" type="curve" smooth="yes"/>
      <point x="726" y="720"/>
      <point x="814" y="641"/>
      <point x="867" y="544" type="curve"/>
      <point x="646" y="452" type="line"/>
      <point x="630" y="496"/>
      <point x="601" y="535"/>
      <point x="534" y="535" type="curve" smooth="yes"/>
      <point x="436" y="535"/>
      <point x="344" y="473"/>
      <point x="322" y="350" type="curve" smooth="yes"/>
      <point x="300" y="227"/>
      <point x="359" y="155"/>
      <point x="467" y="155" type="curve" smooth="yes"/>
      <point x="615" y="155"/>
      <point x="660" y="267"/>
      <point x="683" y="400" type="curve"/>
    </contour>
    <contour>
      <point x="592" y="860" type="line"/>
      <point x="498" y="780" type="line"/>
      <point x="373" y="870" type="line"/>
      <point x="618" y="1010" type="line"/>
      <point x="813" y="870" type="line"/>
      <point x="658" y="780" type="line"/>
    </contour>
  </outline>
</glyph>
<glyph name="Gbreve" format="1">
  <advance width="838"/>
  <unicode hex="011E"/>
  <outline>
    <contour>
      <point x="472" y="240" type="line"/>
      <point x="501" y="400" type="line"/>
      <point x="873" y="400" type="line"/>
      <point x="734" y="240" type="line"/>
    </contour>
    <contour>
      <point x="873" y="400" type="line"/>
      <point x="851" y="161"/>
      <point x="679" y="-30"/>
      <point x="425" y="-30" type="curve" smooth="yes"/>
      <point x="191" y="-30"/>
      <point x="52" y="121"/>
      <point x="92" y="350" type="curve" smooth="yes"/>
      <point x="132" y="579"/>
      <point x="333" y="720"/>
      <point x="567" y="720" type="curve" smooth="yes"/>
      <point x="726" y="720"/>
      <point x="814" y="641"/>
      <point x="867" y="544" type="curve"/>
      <point x="646" y="452" type="line"/>
      <point x="630" y="496"/>
      <point x="601" y="535"/>
      <point x="534" y="535" type="curve" smooth="yes"/>
      <point x="436" y="535"/>
      <point x="344" y="473"/>
      <point x="322" y="350" type="curve" smooth="yes"/>
      <point x="300" y="227"/>
      <point x="359" y="155"/>
      <point x="467" y="155" type="curve" smooth="yes"/>
      <point x="615" y="155"/>
      <point x="660" y="267"/>
      <point x="683" y="400" type="curve"/>
    </contour>
    <contour>
      <point x="436" y="930" type="curve"/>
      <point x="552" y="930" type="line"/>
      <point x="545" y="889"/>
      <point x="575" y="880"/>
      <point x="595" y="880" type="curve" smooth="yes"/>
      <point x="615" y="880"/>
      <point x="649" y="889"/>
      <point x="656" y="930" type="curve"/>
      <point x="772" y="930" type="line"/>
      <point x="756" y="841"/>
      <point x="683" y="780"/>
      <point x="578" y="780" type="curve" smooth="yes"/>
      <point x="473" y="780"/>
      <point x="420" y="841"/>
    </contour>
  </outline>
</glyph>
<glyph name="Imacron" format="1">
  <advance width="365"/>
  <unicode hex="012A"/>
  <outline>
    <contour>
      <point x="193" y="700" type="line"/>
      <point x="418" y="700" type="line"/>
      <point x="295" y="0" type="line"/>
      <point x="70" y="0" type="line"/>
    </contour>
    <contour>
      <point x="128" y="780" type="line"/>
      <point x="157" y="945" type="line"/>
      <point x="542" y="945" type="line"/>
      <point x="513" y="780" type="line"/>
    </contour>
  </outline>
</glyph>
<glyph name="Iogonek" format="1">
  <advance width="365"/>
  <unicode hex="012E"/>
  <outline>
    <contour>
      <point x="193" y="700" type="line"/>
      <point x="418" y="700" type="line"/>
      <point x="295" y="0" type="line"/>
      <point x="70" y="0" type="line"/>
    </contour>
    <contour>
      <point x="241" y="-97" type="curve"/>
      <point x="261" y="-177" type="line"/>
      <point x="242" y="-197"/>
      <point x="209" y="-217"/>
      <point x="146" y="-217" type="curve" smooth="yes"/>
      <point x="92" y="-217"/>
      <point x="37" y="-186"/>
      <point x="49" y="-117" type="curve"/>
      <point x="165" y="-87" type="line"/>
      <point x="162" y="-105"/>
      <point x="167" y="-117"/>
      <point x="187" y="-117" type="curve" smooth="yes"/>
      <point x="203" y="-117"/>
      <point x="225" y="-110"/>
    </contour>
    <contour>
      <point x="165" y="-87" type="curve"/>
      <point x="49" y="-117" type="line"/>
      <point x="61" y="-48"/>
      <point x="141" y="-8"/>
      <point x="217" y="28" type="curve"/>
      <point x="255" y="3" type="line"/>
      <point x="197" y="-29"/>
      <point x="170" y="-60"/>
    </contour>
  </outline>
</glyph>
<glyph name="Idotaccent" format="1">
  <advance width="365"/>
  <unicode hex="0130"/>
  <outline>
    <contour>
      <point x="193" y="700" type="line"/>
      <point x="418" y="700" type="line"/>
      <point x="295" y="0" type="line"/>
      <point x="70" y="0" type="line"/>
    </contour>
    <contour>
      <point x="222" y="895" type="curve" smooth="yes"/>
      <point x="233" y="958"/>
      <point x="290" y="1010"/>
      <point x="360" y="1010" type="curve" smooth="yes"/>
      <point x="430" y="1010"/>
      <point x="469" y="958"/>
      <point x="458" y="895" type="curve" smooth="yes"/>
      <point x="447" y="832"/>
      <point x="390" y="780"/>
      <point x="320" y="780" type="curve" smooth="yes"/>
      <point x="250" y="780"/>
      <point x="211" y="832"/>
    </contour>
  </outline>
</glyph>
<glyph name="Lcaron" format="1">
  <advance width="575"/>
  <unicode hex="013D"/>
  <outline>
    <contour>
      <point x="222" y="0" type="line"/>
      <point x="255" y="185" type="line"/>
      <point x="608" y="185" type="line"/>
      <point x="575" y="0" type="line"/>
    </contour>
    <contour>
      <point x="193" y="700" type="line"/>
      <point x="413" y="700" type="line"/>
      <point x="290" y="0" type="line"/>
      <point x="70" y="0" type="line"/>
    </contour>
    <contour>
      <point x="560" y="720" type="line"/>
      <point x="749" y="686" type="line"/>
      <point x="570" y="436" type="line"/>
      <point x="426" y="461" type="line"/>
    </contour>
  </outline>
</glyph>
<glyph name="Ldot" format="1">
  <advance width="575"/>
  <unicode hex="013F"/>
  <outline>
    <contour>
      <point x="222" y="0" type="line"/>
      <point x="255" y="185" type="line"/>
      <point x="608" y="185" type="line"/>
      <point x="575" y="0" type="line"/>
    </contour>
    <contour>
      <point x="193" y="700" type="line"/>
      <point x="413" y="700" type="line"/>
      <point x="290" y="0" type="line"/>
      <point x="70" y="0" type="line"/>
    </contour>
    <contour>
      <point x="418" y="420" type="curve" smooth="yes"/>
      <point x="429" y="483"/>
      <point x="486" y="535"/>
      <point x="556" y="535" type="curve" smooth="yes"/>
      <point x="626" y="535"/>
      <point x="665" y="483"/>
      <point x="654" y="420" type="curve" smooth="yes"/>
      <point x="643" y="357"/>
      <point x="586" y="305"/>
      <point x="516" y="305" type="curve" smooth="yes"/>
      <point x="446" y="305"/>
      <point x="407" y="357"/>
    </contour>
  </outline>
</glyph>
<glyph name="lslash" format="1">
  <advance width="295"/>
  <unicode hex="0142"/>
  <outline>
    <contour>
      <point x="188" y="780" type="line"/>
      <point x="383" y="780" type="line"/>
      <point x="245" y="0" type="line"/>
      <point x="50" y="0" type="line"/>
    </contour>
    <contour>
      <point x="36" y="290" type="line"/>
      <point x="1" y="375" type="line"/>
      <point x="427" y="635" type="line"/>
      <point x="462" y="550" type="line"/>
    </contour>
  </outline>
</glyph>
<glyph name="Ncaron" format="1">
  <advance width="805"/>
  <unicode hex="0147"/>
  <outline>
    <contour>
      <point x="159" y="475" type="line"/>
      <point x="200" y="735" type="line"/>
      <point x="770" y="225" type="line"/>
      <point x="729" y="-35" type="line"/>
    </contour>
    <contour>
      <point x="648" y="700" type="line"/>
      <point x="858" y="700" type="line"/>
      <point x="729" y="-35" type="line"/>
      <point x="559" y="195" type="line"/>
    </contour>
    <contour>
      <point x="200" y="735" type="line"/>
      <point x="369" y="505" type="line"/>
      <point x="280" y="0" type="line"/>
      <point x="70" y="0" type="line"/>
    </contour>
    <contour>
      <point x="521" y="915" type="line"/>
      <point x="615" y="995" type="line"/>
      <point x="740" y="905" type="line"/>
      <point x="495" y="765" type="line"/>
      <point x="300" y="905" type="line"/>
      <point x="455" y="995" type="line"/>
    </contour>
  </outline>
</glyph>
<glyph name="napostrophe" format="1">
  <advance width="815"/>
  <unicode hex="0149"/>
  <outline>
    <contour>
      <point x="536" y="460" type="line"/>
      <point x="455" y="0" type="line"/>
      <point x="260" y="0" type="line"/>
      <point x="341" y="460" type="line"/>
    </contour>
    <contour>
      <point x="609" y="280" type="line" smooth="yes"/>
      <point x="616" y="321"/>
      <point x="613" y="346"/>
      <point x="573" y="346" type="curve" smooth="yes"/>
      <point x="538" y="346"/>
      <point x="512" y="326"/>
      <point x="504" y="280" type="curve"/>
      <point x="477" y="270" type="line"/>
      <point x="496" y="379"/>
      <point x="555" y="471"/>
      <point x="680" y="471" type="curve" smooth="yes"/>
      <point x="805" y="471"/>
      <point x="837" y="409"/>
      <point x="818" y="300" type="curve" smooth="yes"/>
      <point x="765" y="0" type="line"/>
      <point x="560" y="0" type="line"/>
    </contour>
    <contour>
      <point x="223" y="700" type="line"/>
      <point x="418" y="700" type="line"/>
      <point x="266" y="430" type="line"/>
      <point x="126" y="430" type="line"/>
    </contour>
  </outline>
</glyph>
<glyph name="Obreve" format="1">
  <advance width="840"/>
  <unicode hex="014E"/>
  <outline>
    <contour>
      <point x="325" y="350" type="curve" smooth="yes"/>
      <point x="307" y="247"/>
      <point x="353" y="178"/>
      <point x="451" y="178" type="curve" smooth="yes"/>
      <point x="549" y="178"/>
      <point x="621" y="247"/>
      <point x="639" y="350" type="curve" smooth="yes"/>
      <point x="657" y="453"/>
      <point x="615" y="522"/>
      <point x="512" y="522" type="curve" smooth="yes"/>
      <point x="414" y="522"/>
      <point x="343" y="453"/>
    </contour>
    <contour>
      <point x="92" y="350" type="curve" smooth="yes"/>
      <point x="131" y="574"/>
      <point x="328" y="720"/>
      <point x="547" y="720" type="curve" smooth="yes"/>
      <point x="771" y="720"/>
      <point x="911" y="574"/>
      <point x="872" y="350" type="curve" smooth="yes"/>
      <point x="833" y="126"/>
      <point x="644" y="-30"/>
      <point x="415" y="-30" type="curve" smooth="yes"/>
      <point x="186" y="-30"/>
      <point x="53" y="126"/>
    </contour>
    <contour>
      <point x="416" y="930" type="curve"/>
      <point x="532" y="930" type="line"/>
      <point x="525" y="889"/>
      <point x="555" y="880"/>
      <point x="575" y="880" type="curve" smooth="yes"/>
      <point x="595" y="880"/>
      <point x="629" y="889"/>
      <point x="636" y="930" type="curve"/>
      <point x="752" y="930" type="line"/>
      <point x="736" y="841"/>
      <point x="663" y="780"/>
      <point x="558" y="780" type="curve" smooth="yes"/>
      <point x="453" y="780"/>
      <point x="400" y="841"/>
    </contour>
  </outline>
</glyph>
<glyph name="obreve" format="1">
  <advance width="616"/>
  <unicode hex="014F"/>
  <outline>
    <contour>
      <point x="71" y="230" type="curve" smooth="yes"/>
      <point x="97" y="379"/>
      <point x="231" y="471"/>
      <point x="391" y="471" type="curve" smooth="yes"/>
      <point x="551" y="471"/>
      <point x="653" y="379"/>
      <point x="627" y="230" type="curve" smooth="yes"/>
      <point x="601" y="81"/>
      <point x="466" y="-10"/>
      <point x="306" y="-10" type="curve" smooth="yes"/>
      <point x="146" y="-10"/>
      <point x="45" y="81"/>
    </contour>
    <contour>
      <point x="272" y="230" type="curve" smooth="yes"/>
      <point x="262" y="174"/>
      <point x="294" y="145"/>
      <point x="334" y="145" type="curve" smooth="yes"/>
      <point x="374" y="145"/>
      <point x="416" y="174"/>
      <point x="426" y="230" type="curve" smooth="yes"/>
      <point x="436" y="286"/>
      <point x="404" y="316"/>
      <point x="364" y="316" type="curve" smooth="yes"/>
      <point x="324" y="316"/>
      <point x="282" y="286"/>
    </contour>
    <contour>
      <point x="260" y="681" type="curve"/>
      <point x="376" y="681" type="line"/>
      <point x="369" y="640"/>
      <point x="399" y="631"/>
      <point x="419" y="631" type="curve" smooth="yes"/>
      <point x="439" y="631"/>
      <point x="473" y="640"/>
      <point x="480" y="681" type="curve"/>
      <point x="596" y="681" type="line"/>
      <point x="580" y="592"/>
      <point x="507" y="531"/>
      <point x="402" y="531" type="curve" smooth="yes"/>
      <point x="297" y="531"/>
      <point x="244" y="592"/>
    </contour>
  </outline>
</glyph>
<glyph name="Scedilla" format="1">
  <advance width="672"/>
  <unicode hex="015E"/>
  <outline>
    <contour>
      <point x="225" y="266" type="line"/>
      <point x="264" y="190"/>
      <point x="301" y="158"/>
      <point x="368" y="158" type="curve" smooth="yes"/>
      <point x="408" y="158"/>
      <point x="434" y="169"/>
      <point x="439" y="199" type="curve" smooth="yes"/>
      <point x="446" y="239"/>
      <point x="395" y="247"/>
      <point x="321" y="280" type="curve" smooth="yes"/>
      <point x="258" y="308"/>
      <point x="138" y="363"/>
      <point x="164" y="510" type="curve" smooth="yes"/>
      <point x="186" y="636"/>
      <point x="310" y="720"/>
      <point x="474" y="720" type="curve" smooth="yes"/>
      <point x="647" y="720"/>
      <point x="711" y="635"/>
      <point x="726" y="564" type="curve"/>
      <point x="548" y="474" type="line"/>
      <point x="526" y="522"/>
      <point x="493" y="539"/>
      <point x="453" y="539" type="curve" smooth="yes"/>
      <point x="417" y="539"/>
      <point x="391" y="525"/>
      <point x="387" y="504" type="curve" smooth="yes"/>
      <point x="381" y="468"/>
      <point x="456" y="452"/>
      <point x="533" y="423" type="curve" smooth="yes"/>
      <point x="638" y="384"/>
      <point x="693" y="317"/>
      <point x="672" y="200" type="curve" smooth="yes"/>
      <point x="644" y="43"/>
      <point x="510" y="-30"/>
      <point x="331" y="-30" type="curve" smooth="yes"/>
      <point x="196" y="-30"/>
      <point x="82" y="43"/>
      <point x="58" y="158" type="curve"/>
    </contour>
    <contour>
      <point x="297" y="62" type="line"/>
      <point x="436" y="56" type="line"/>
      <point x="277" y="-110" type="line"/>
      <point x="171" y="-149" type="line"/>
    </contour>
    <contour>
      <point x="451" y="-178" type="curve"/>
      <point x="332" y="-164" type="line"/>
      <point x="337" y="-136"/>
      <point x="299" y="-134"/>
      <point x="270" y="-134" type="curve" smooth="yes"/>
      <point x="260" y="-134"/>
      <point x="216" y="-135"/>
      <point x="171" y="-149" type="curve"/>
      <point x="258" y="-102" type="line"/>
      <point x="291" y="-72"/>
      <point x="324" y="-66"/>
      <point x="367" y="-66" type="curve" smooth="yes"/>
      <point x="411" y="-66"/>
      <point x="464" y="-102"/>
    </contour>
    <contour>
      <point x="451" y="-178" type="line"/>
      <point x="437" y="-257"/>
      <point x="352" y="-296"/>
      <point x="284" y="-296" type="curve" smooth="yes"/>
      <point x="217" y="-296"/>
      <point x="167" y="-287"/>
      <point x="114" y="-256" type="curve"/>
      <point x="182" y="-170" type="line"/>
      <point x="207" y="-190"/>
      <point x="253" y="-196"/>
      <point x="269" y="-196" type="curve" smooth="yes"/>
      <point x="303" y="-196"/>
      <point x="328" y="-188"/>
      <point x="332" y="-164" type="curve"/>
    </contour>
  </outline>
</glyph>
<glyph name="zcaron" format="1">
  <advance width="550"/>
  <unicode hex="017E"/>
  <outline>
    <contour>
      <point x="226" y="175" type="line"/>
      <point x="536" y="175" type="line"/>
      <point x="505" y="0" type="line"/>
      <point x="15" y="0" type="line"/>
    </contour>
    <contour>
      <point x="146" y="460" type="line"/>
      <point x="626" y="460" type="line"/>
      <point x="395" y="285" type="line"/>
      <point x="115" y="285" type="line"/>
    </contour>
    <contour>
      <point x="446" y="460" type="line"/>
      <point x="626" y="460" type="line"/>
      <point x="225" y="0" type="line"/>
      <point x="15" y="0" type="line"/>
    </contour>
    <contour>
      <point x="425" y="681" type="line"/>
      <point x="519" y="760" type="line"/>
      <point x="643" y="670" type="line"/>
      <point x="398" y="530" type="line"/>
      <point x="203" y="670" type="line"/>
      <point x="359" y="760" type="line"/>
    </contour>
  </outline>
</glyph>
<glyph name="dotaccent" format="1">
  <advance width="300"/>
  <unicode hex="02D9"/>
  <outline>
    <contour>
      <point x="178" y="830" type="curve" smooth="yes"/>
      <point x="189" y="893"/>
      <point x="247" y="945"/>
      <point x="317" y="945" type="curve" smooth="yes"/>
      <point x="387" y="945"/>
      <point x="425" y="893"/>
      <point x="414" y="830" type="curve" smooth="yes"/>
      <point x="403" y="767"/>
      <point x="346" y="715"/>
      <point x="276" y="715" type="curve" smooth="yes"/>
      <point x="206" y="715"/>
      <point x="167" y="767"/>
    </contour>
  </outline>
</glyph>
<glyph name="ring" format="1">
  <advance width="358"/>
  <unicode hex="02DA"/>
  <outline>
    <contour>
      <point x="174" y="760" type="curve" smooth="yes"/>
      <point x="187" y="834"/>
      <point x="254" y="885"/>
      <point x="334" y="885" type="curve" smooth="yes"/>
      <point x="414" y="885"/>
      <point x="465" y="834"/>
      <point x="452" y="760" type="curve" smooth="yes"/>
      <point x="439" y="686"/>
      <point x="370" y="635"/>
      <point x="290" y="635" type="curve" smooth="yes"/>
      <point x="210" y="635"/>
      <point x="161" y="686"/>
    </contour>
    <contour>
      <point x="269" y="760" type="curve" smooth="yes"/>
      <point x="264" y="732"/>
      <point x="279" y="716"/>
      <point x="304" y="716" type="curve" smooth="yes"/>
      <point x="329" y="716"/>
      <point x="351" y="732"/>
      <point x="356" y="760" type="curve" smooth="yes"/>
      <point x="361" y="788"/>
      <point x="345" y="805"/>
      <point x="320" y="805" type="curve" smooth="yes"/>
      <point x="295" y="805"/>
      <point x="274" y="788"/>
    </contour>
  </outline>
</glyph>
<glyph name="uni2010" format="1">
  <advance width="230"/>
  <unicode hex="2010"/>
  <outline>
    <contour>
      <point x="32" y="155" type="line"/>
      <point x="61" y="320" type="line"/>
      <point x="281" y="320" type="line"/>
      <point x="252" y="155" type="line"/>
    </contour>
  </outline>
</glyph>
<glyph name="quotedblleft" format="1">
  <advance width="615"/>
  <unicode hex="201C"/>
  <outline>
    <contour>
      <point x="341" y="430" type="line"/>
      <point x="146" y="430" type="line"/>
      <point x="298" y="700" type="line"/>
      <point x="438" y="700" type="line"/>
    </contour>
    <contour>
      <point x="591" y="430" type="line"/>
      <point x="396" y="430" type="line"/>
      <point x="548" y="700" type="line"/>
      <point x="688" y="700" type="line"/>
    </contour>
  </outline>
</glyph>
<glyph name="daggerdbl" format="1">
  <advance width="670"/>
  <unicode hex="2021"/>
  <outline>
    <contour>
      <point x="122" y="180" type="line"/>
      <point x="612" y="180" type="line"/>
      <point x="584" y="25" type="line"/>
      <point x="94" y="25" type="line"/>
    </contour>
    <contour>
      <point x="185" y="540" type="line"/>
      <point x="675" y="540" type="line"/>
      <point x="648" y="385" type="line"/>
      <point x="158" y="385" type="line"/>
    </contour>
    <contour>
      <point x="368" y="700" type="line"/>
      <point x="548" y="700" type="line"/>
      <point x="399" y="-150" type="line"/>
      <point x="219" y="-150" type="line"/>
    </contour>
  </outline>
</glyph>
<glyph name="uni2031" format="1">
  <advance width="2021"/>
  <unicode hex="2031"/>
  <outline>
    <contour>
      <point x="1621" y="176" type="curve" smooth="yes"/>
      <point x="1640" y="286"/>
      <point x="1749" y="376"/>
      <point x="1864" y="376" type="curve" smooth="yes"/>
      <point x="1979" y="376"/>
      <point x="2056" y="286"/>
      <point x="2037" y="176" type="curve" smooth="yes"/>
      <point x="2018" y="66"/>
      <point x="1909" y="-24"/>
      <point x="1794" y="-24" type="curve" smooth="yes"/>
      <point x="1679" y="-24"/>
      <point x="1602" y="66"/>
    </contour>
    <contour>
      <point x="1778" y="176" type="curve" smooth="yes"/>
      <point x="1773" y="149"/>
      <point x="1792" y="127"/>
      <point x="1820" y="127" type="curve" smooth="yes"/>
      <point x="1848" y="127"/>
      <point x="1875" y="149"/>
      <point x="1880" y="176" type="curve" smooth="yes"/>
      <point x="1885" y="203"/>
      <point x="1866" y="225"/>
      <point x="1838" y="225" type="curve" smooth="yes"/>
      <point x="1810" y="225"/>
      <point x="1783" y="203"/>
    </contour>
    <contour>
      <point x="1121" y="176" type="curve" smooth="yes"/>
      <point x="1140" y="286"/>
      <point x="1249" y="376"/>
      <point x="1364" y="376" type="curve" smooth="yes"/>
      <point x="1479" y="376"/>
      <point x="1556" y="286"/>
      <point x="1537" y="176" type="curve" smooth="yes"/>
      <point x="1518" y="66"/>
      <point x="1409" y="-24"/>
      <point x="1294" y="-24" type="curve" smooth="yes"/>
      <point x="1179" y="-24"/>
      <point x="1102" y="66"/>
    </contour>
    <contour>
      <point x="1278" y="176" type="curve" smooth="yes"/>
      <point x="1273" y="149"/>
      <point x="1292" y="127"/>
      <point x="1320" y="127" type="curve" smooth="yes"/>
      <point x="1348" y="127"/>
      <point x="1375" y="149"/>
      <point x="1380" y="176" type="curve" smooth="yes"/>
      <point x="1385" y="203"/>
      <point x="1366" y="225"/>
      <point x="1338" y="225" type="curve" smooth="yes"/>
      <point x="1310" y="225"/>
      <point x="1283" y="203"/>
    </contour>
    <contour>
      <point x="108" y="525" type="curve" smooth="yes"/>
      <point x="127" y="635"/>
      <point x="236" y="725"/>
      <point x="351" y="725" type="curve" smooth="yes"/>
      <point x="466" y="725"/>
      <point x="543" y="635"/>
      <point x="524" y="525" type="curve" smooth="yes"/>
      <point x="505" y="415"/>
      <point x="395" y="325"/>
      <point x="280" y="325" type="curve" smooth="yes"/>
      <point x="165" y="325"/>
      <point x="89" y="415"/>
    </contour>
    <contour>
      <point x="265" y="525" type="curve" smooth="yes"/>
      <point x="260" y="498"/>
      <point x="279" y="476"/>
      <point x="307" y="476" type="curve" smooth="yes"/>
      <point x="335" y="476"/>
      <point x="362" y="498"/>
      <point x="367" y="525" type="curve" smooth="yes"/>
      <point x="372" y="552"/>
      <point x="352" y="574"/>
      <point x="324" y="574" type="curve" smooth="yes"/>
      <point x="296" y="574"/>
      <point x="270" y="552"/>
    </contour>
    <contour>
      <point x="621" y="176" type="curve" smooth="yes"/>
      <point x="640" y="286"/>
      <point x="749" y="376"/>
      <point x="864" y="376" type="curve" smooth="yes"/>
      <point x="979" y="376"/>
      <point x="1056" y="286"/>
      <point x="1037" y="176" type="curve" smooth="yes"/>
      <point x="1018" y="66"/>
      <point x="909" y="-24"/>
      <point x="794" y="-24" type="curve" smooth="yes"/>
      <point x="679" y="-24"/>
      <point x="602" y="66"/>
    </contour>
    <contour>
      <point x="778" y="176" type="curve" smooth="yes"/>
      <point x="773" y="149"/>
      <point x="792" y="127"/>
      <point x="820" y="127" type="curve" smooth="yes"/>
      <point x="848" y="127"/>
      <point x="875" y="149"/>
      <point x="880" y="176" type="curve" smooth="yes"/>
      <point x="885" y="203"/>
      <point x="866" y="225"/>
      <point x="838" y="225" type="curve" smooth="yes"/>
      <point x="810" y="225"/>
      <point x="783" y="203"/>
    </contour>
    <contour>
      <point x="826" y="700" type="line"/>
      <point x="1031" y="700" type="line"/>
      <point x="318" y="0" type="line"/>
      <point x="113" y="0" type="line"/>
    </contour>
  </outline>
</glyph>
<glyph name="uni2075" format="1">
  <advance width="406"/>
  <unicode hex="2075"/>
  <outline>
    <contour>
      <point x="454" y="410" type="curve" smooth="yes"/>
      <point x="436" y="309"/>
      <point x="327" y="269"/>
      <point x="246" y="269" type="curve" smooth="yes"/>
      <point x="169" y="269"/>
      <point x="116" y="285"/>
      <point x="73" y="303" type="curve"/>
      <point x="131" y="420" type="line"/>
      <point x="170" y="396"/>
      <point x="210" y="389"/>
      <point x="232" y="389" type="curve" smooth="yes"/>
      <point x="277" y="389"/>
      <point x="307" y="397"/>
      <point x="312" y="428" type="curve" smooth="yes"/>
      <point x="317" y="459"/>
      <point x="278" y="464"/>
      <point x="245" y="464" type="curve" smooth="yes"/>
      <point x="217" y="464"/>
      <point x="163" y="460"/>
      <point x="117" y="444" type="curve"/>
      <point x="223" y="502" type="line"/>
      <point x="263" y="538"/>
      <point x="302" y="545"/>
      <point x="349" y="545" type="curve" smooth="yes"/>
      <point x="412" y="545"/>
      <point x="470" y="499"/>
    </contour>
    <contour>
      <point x="298" y="584" type="line"/>
      <point x="245" y="492" type="line"/>
      <point x="117" y="444" type="line"/>
      <point x="222" y="698" type="line"/>
      <point x="492" y="698" type="line"/>
      <point x="472" y="584" type="line"/>
    </contour>
  </outline>
</glyph>
<glyph name="uni2079" format="1">
  <advance width="401"/>
  <unicode hex="2079"/>
  <outline>
    <contour>
      <point x="353" y="549" type="curve" smooth="yes"/>
      <point x="359" y="583"/>
      <point x="338" y="603"/>
      <point x="306" y="603" type="curve" smooth="yes"/>
      <point x="274" y="603"/>
      <point x="246" y="583"/>
      <point x="240" y="549" type="curve" smooth="yes"/>
      <point x="234" y="515"/>
      <point x="255" y="494"/>
      <point x="287" y="494" type="curve" smooth="yes"/>
      <point x="319" y="494"/>
      <point x="347" y="515"/>
    </contour>
    <contour>
      <point x="267" y="285" type="line"/>
      <point x="99" y="285" type="line"/>
      <point x="263" y="424" type="line"/>
      <point x="297" y="440" type="line"/>
      <point x="267" y="417"/>
      <point x="250" y="412"/>
      <point x="218" y="412" type="curve" smooth="yes"/>
      <point x="159" y="412"/>
      <point x="93" y="460"/>
      <point x="109" y="549" type="curve" smooth="yes"/>
      <point x="129" y="662"/>
      <point x="224" y="714"/>
      <point x="326" y="714" type="curve" smooth="yes"/>
      <point x="428" y="714"/>
      <point x="505" y="662"/>
      <point x="485" y="549" type="curve" smooth="yes"/>
      <point x="476" y="497"/>
      <point x="439" y="455"/>
      <point x="398" y="414" type="curve" smooth="yes"/>
    </contour>
  </outline>
</glyph>
<glyph name="uni2088" format="1">
  <advance width="396"/>
  <unicode hex="2088"/>
  <outline>
    <contour>
      <point x="96" y="319" type="curve" smooth="yes"/>
      <point x="110" y="396"/>
      <point x="190" y="432"/>
      <point x="274" y="432" type="curve" smooth="yes"/>
      <point x="358" y="432"/>
      <point x="426" y="396"/>
      <point x="412" y="319" type="curve" smooth="yes"/>
      <point x="397" y="236"/>
      <point x="302" y="201"/>
      <point x="233" y="201" type="curve" smooth="yes"/>
      <point x="164" y="201"/>
      <point x="81" y="236"/>
    </contour>
    <contour>
      <point x="218" y="307" type="curve" smooth="yes"/>
      <point x="214" y="285"/>
      <point x="225" y="270"/>
      <point x="246" y="270" type="curve" smooth="yes"/>
      <point x="267" y="270"/>
      <point x="282" y="285"/>
      <point x="286" y="307" type="curve" smooth="yes"/>
      <point x="290" y="329"/>
      <point x="279" y="342"/>
      <point x="258" y="342" type="curve" smooth="yes"/>
      <point x="237" y="342"/>
      <point x="222" y="329"/>
    </contour>
    <contour>
      <point x="45" y="114" type="curve" smooth="yes"/>
      <point x="62" y="209"/>
      <point x="171" y="240"/>
      <point x="240" y="240" type="curve" smooth="yes"/>
      <point x="309" y="240"/>
      <point x="408" y="209"/>
      <point x="391" y="114" type="curve" smooth="yes"/>
      <point x="376" y="31"/>
      <point x="283" y="-12"/>
      <point x="196" y="-12" type="curve" smooth="yes"/>
      <point x="109" y="-12"/>
      <point x="30" y="31"/>
    </contour>
    <contour>
      <point x="182" y="135" type="curve" smooth="yes"/>
      <point x="177" y="107"/>
      <point x="190" y="93"/>
      <point x="214" y="93" type="curve" smooth="yes"/>
      <point x="238" y="93"/>
      <point x="257" y="107"/>
      <point x="262" y="135" type="curve" smooth="yes"/>
      <point x="266" y="157"/>
      <point x="253" y="174"/>
      <point x="229" y="174" type="curve" smooth="yes"/>
      <point x="205" y="174"/>
      <point x="186" y="157"/>
    </contour>
  </outline>
</glyph>
<glyph name="uni2150" format="1">
  <advance width="1002"/>
  <unicode hex="2150"/>
  <outline>
    <contour>
      <point x="751" y="700" type="line"/>
      <point x="906" y="700" type="line"/>
      <point x="263" y="0" type="line"/>
      <point x="108" y="0" type="line"/>
    </contour>
    <contour>
      <point x="117" y="549" type="line"/>
      <point x="136" y="659" type="line"/>
      <point x="381" y="703" type="line"/>
      <point x="305" y="274" type="line"/>
      <point x="179" y="274" type="line"/>
      <point x="232" y="574" type="line"/>
    </contour>
    <contour>
      <point x="665" y="297" type="line"/>
      <point x="687" y="420" type="line"/>
      <point x="1059" y="420" type="line"/>
      <point x="781" y="0" type="line"/>
      <point x="638" y="0" type="line"/>
      <point x="844" y="297" type="line"/>
    </contour>
  </outline>
</glyph>
<glyph name="uni2157" format="1">
  <advance width="991"/>
  <unicode hex="2157"/>
  <outline>
    <contour>
      <point x="808" y="700" type="line"/>
      <point x="963" y="700" type="line"/>
      <point x="320" y="0" type="line"/>
      <point x="165" y="0" type="line"/>
    </contour>
    <contour>
      <point x="252" y="481" type="curve"/>
      <point x="261" y="534" type="line"/>
      <point x="303" y="534"/>
      <point x="338" y="556"/>
      <point x="342" y="581" type="curve" smooth="yes"/>
      <point x="345" y="597"/>
      <point x="335" y="607"/>
      <point x="309" y="607" type="curve" smooth="yes"/>
      <point x="282" y="607"/>
      <point x="261" y="591"/>
      <point x="257" y="566" type="curve"/>
      <point x="136" y="566" type="line"/>
      <point x="150" y="646"/>
      <point x="226" y="709"/>
      <point x="328" y="709" type="curve" smooth="yes"/>
      <point x="436" y="709"/>
      <point x="486" y="658"/>
      <point x="474" y="590" type="curve" smooth="yes"/>
      <point x="460" y="510"/>
      <point x="363" y="481"/>
    </contour>
    <contour>
      <point x="244" y="268" type="curve" smooth="yes"/>
      <point x="130" y="268"/>
      <point x="79" y="347"/>
      <point x="93" y="427" type="curve"/>
      <point x="223" y="427" type="line"/>
      <point x="215" y="384"/>
      <point x="241" y="370"/>
      <point x="268" y="370" type="curve" smooth="yes"/>
      <point x="295" y="370"/>
      <point x="319" y="378"/>
      <point x="324" y="409" type="curve" smooth="yes"/>
      <point x="328" y="434"/>
      <point x="314" y="457"/>
      <point x="248" y="457" type="curve"/>
      <point x="259" y="519" type="line"/>
      <point x="388" y="519"/>
      <point x="467" y="483"/>
      <point x="452" y="397" type="curve" smooth="yes"/>
      <point x="439" y="323"/>
      <point x="364" y="268"/>
    </contour>
    <contour>
      <point x="975" y="130" type="curve" smooth="yes"/>
      <point x="957" y="29"/>
      <point x="848" y="-11"/>
      <point x="767" y="-11" type="curve" smooth="yes"/>
      <point x="690" y="-11"/>
      <point x="637" y="5"/>
      <point x="594" y="23" type="curve"/>
      <point x="652" y="140" type="line"/>
      <point x="691" y="116"/>
      <point x="730" y="109"/>
      <point x="752" y="109" type="curve" smooth="yes"/>
      <point x="797" y="109"/>
      <point x="828" y="117"/>
      <point x="833" y="148" type="curve" smooth="yes"/>
      <point x="838" y="179"/>
      <point x="798" y="184"/>
      <point x="765" y="184" type="curve" smooth="yes"/>
      <point x="737" y="184"/>
      <point x="684" y="180"/>
      <point x="638" y="164" type="curve"/>
      <point x="743" y="222" type="line"/>
      <point x="783" y="258"/>
      <point x="823" y="265"/>
      <point x="870" y="265" type="curve" smooth="yes"/>
      <point x="933" y="265"/>
      <point x="991" y="219"/>
    </contour>
    <contour>
      <point x="819" y="304" type="line"/>
      <point x="765" y="212" type="line"/>
      <point x="638" y="164" type="line"/>
      <point x="743" y="418" type="line"/>
      <point x="1013" y="418" type="line"/>
      <point x="993" y="304" type="line"/>
    </contour>
  </outline>
</glyph>
<glyph name="threeeighths" format="1">
  <advance width="1017"/>
  <unicode hex="215C"/>
  <outline>
    <contour>
      <point x="818" y="700" type="line"/>
      <point x="973" y="700" type="line"/>
      <point x="330" y="0" type="line"/>
      <point x="175" y="0" type="line"/>
    </contour>
    <contour>
      <point x="252" y="481" type="curve"/>
      <point x="261" y="534" type="line"/>
      <point x="303" y="534"/>
      <point x="338" y="556"/>
      <point x="342" y="581" type="curve" smooth="yes"/>
      <point x="345" y="597"/>
      <point x="335" y="607"/>
      <point x="309" y="607" type="curve" smooth="yes"/>
      <point x="282" y="607"/>
      <point x="261" y="591"/>
      <point x="257" y="566" type="curve"/>
      <point x="136" y="566" type="line"/>
      <point x="150" y="646"/>
      <point x="226" y="709"/>
      <point x="328" y="709" type="curve" smooth="yes"/>
      <point x="436" y="709"/>
      <point x="486" y="658"/>
      <point x="474" y="590" type="curve" smooth="yes"/>
      <point x="460" y="510"/>
      <point x="363" y="481"/>
    </contour>
    <contour>
      <point x="244" y="268" type="curve" smooth="yes"/>
      <point x="130" y="268"/>
      <point x="79" y="347"/>
      <point x="93" y="427" type="curve"/>
      <point x="223" y="427" type="line"/>
      <point x="215" y="384"/>
      <point x="241" y="370"/>
      <point x="268" y="370" type="curve" smooth="yes"/>
      <point x="295" y="370"/>
      <point x="319" y="378"/>
      <point x="324" y="409" type="curve" smooth="yes"/>
      <point x="328" y="434"/>
      <point x="314" y="457"/>
      <point x="248" y="457" type="curve"/>
      <point x="259" y="519" type="line"/>
      <point x="388" y="519"/>
      <point x="467" y="483"/>
      <point x="452" y="397" type="curve" smooth="yes"/>
      <point x="439" y="323"/>
      <point x="364" y="268"/>
    </contour>
    <contour>
      <point x="711" y="319" type="curve" smooth="yes"/>
      <point x="725" y="396"/>
      <point x="805" y="432"/>
      <point x="889" y="432" type="curve" smooth="yes"/>
      <point x="973" y="432"/>
      <point x="1041" y="396"/>
      <point x="1027" y="319" type="curve" smooth="yes"/>
      <point x="1012" y="236"/>
      <point x="917" y="201"/>
      <point x="848" y="201" type="curve" smooth="yes"/>
      <point x="779" y="201"/>
      <point x="696" y="236"/>
    </contour>
    <contour>
      <point x="833" y="307" type="curve" smooth="yes"/>
      <point x="829" y="285"/>
      <point x="840" y="270"/>
      <point x="861" y="270" type="curve" smooth="yes"/>
      <point x="882" y="270"/>
      <point x="897" y="285"/>
      <point x="901" y="307" type="curve" smooth="yes"/>
      <point x="905" y="329"/>
      <point x="894" y="342"/>
      <point x="873" y="342" type="curve" smooth="yes"/>
      <point x="852" y="342"/>
      <point x="837" y="329"/>
    </contour>
    <contour>
      <point x="660" y="114" type="curve" smooth="yes"/>
      <point x="677" y="209"/>
      <point x="786" y="240"/>
      <point x="855" y="240" type="curve" smooth="yes"/>
      <point x="924" y="240"/>
      <point x="1023" y="209"/>
      <point x="1006" y="114" type="curve" smooth="yes"/>
      <point x="991" y="31"/>
      <point x="898" y="-12"/>
      <point x="811" y="-12" type="curve" smooth="yes"/>
      <point x="724" y="-12"/>
      <point x="645" y="31"/>
    </contour>
    <contour>
      <point x="797" y="135" type="curve" smooth="yes"/>
      <point x="792" y="107"/>
      <point x="805" y="93"/>
      <point x="829" y="93" type="curve" smooth="yes"/>
      <point x="853" y="93"/>
      <point x="872" y="107"/>
      <point x="877" y="135" type="curve" smooth="yes"/>
      <point x="881" y="157"/>
      <point x="868" y="174"/>
      <point x="844" y="174" type="curve" smooth="yes"/>
      <point x="820" y="174"/>
      <point x="801" y="157"/>
    </contour>
  </outline>
</glyph>
<glyph name="minus" format="1">
  <advance width="595"/>
  <unicode hex="2212"/>
  <outline>
    <contour>
      <point x="77" y="155" type="line"/>
      <point x="106" y="320" type="line"/>
      <point x="601" y="320" type="line"/>
      <point x="572" y="155" type="line"/>
    </contour>
  </outline>
</glyph>
<glyph name="uni2219" format="1">
  <advance width="336"/>
  <unicode hex="2219"/>
  <outline>
    <contour>
      <point x="131" y="460" type="curve" smooth="yes"/>
      <point x="142" y="523"/>
      <point x="199" y="575"/>
      <point x="269" y="575" type="curve" smooth="yes"/>
      <point x="339" y="575"/>
      <point x="378" y="523"/>
      <point x="367" y="460" type="curve" smooth="yes"/>
      <point x="356" y="397"/>
      <point x="299" y="345"/>
      <point x="229" y="345" type="curve" smooth="yes"/>
      <point x="159" y="345"/>
      <point x="120" y="397"/>
    </contour>
  </outline>
</glyph>
<glyph name="uniFF13" format="1">
  <advance width="660"/>
  <unicode hex="FF13"/>
  <outline>
    <contour>
      <point x="334" y="335" type="curve"/>
      <point x="350" y="424" type="line"/>
      <point x="420" y="424"/>
      <point x="478" y="460"/>
      <point x="485" y="501" type="curve" smooth="yes"/>
      <point x="490" y="527"/>
      <point x="473" y="545"/>
      <point x="430" y="545" type="curve" smooth="yes"/>
      <point x="385" y="545"/>
      <point x="349" y="517"/>
      <point x="342" y="476" type="curve"/>
      <point x="141" y="476" type="line"/>
      <point x="165" y="610"/>
      <point x="291" y="715"/>
      <point x="461" y="715" type="curve" smooth="yes"/>
      <point x="641" y="715"/>
      <point x="724" y="630"/>
      <point x="704" y="516" type="curve" smooth="yes"/>
      <point x="680" y="382"/>
      <point x="519" y="335"/>
    </contour>
    <contour>
      <point x="321" y="-20" type="curve" smooth="yes"/>
      <point x="131" y="-20"/>
      <point x="46" y="111"/>
      <point x="70" y="245" type="curve"/>
      <point x="286" y="245" type="line"/>
      <point x="273" y="174"/>
      <point x="316" y="150"/>
      <point x="361" y="150" type="curve" smooth="yes"/>
      <point x="406" y="150"/>
      <point x="446" y="164"/>
      <point x="455" y="215" type="curve" smooth="yes"/>
      <point x="462" y="256"/>
      <point x="437" y="295"/>
      <point x="327" y="295" type="curve"/>
      <point x="345" y="399" type="line"/>
      <point x="560" y="399"/>
      <point x="692" y="339"/>
      <point x="667" y="195" type="curve" smooth="yes"/>
      <point x="645" y="71"/>
      <point x="521" y="-20"/>
    </contour>
  </outline>
</glyph>
<glyph name="uniFF15" format="1">
  <advance width="660"/>
  <unicode hex="FF15"/>
  <outline>
    <contour>
      <point x="665" y="220" type="curve" smooth="yes"/>
      <point x="635" y="51"/>
      <point x="453" y="-15"/>
      <point x="318" y="-15" type="curve" smooth="yes"/>
      <point x="189" y="-15"/>
      <point x="100" y="12"/>
      <point x="29" y="42" type="curve"/>
      <point x="126" y="236" type="line"/>
      <point x="190" y="196"/>
      <point x="257" y="185"/>
      <point x="294" y="185" type="curve" smooth="yes"/>
      <point x="369" y="185"/>
      <point x="418" y="199"/>
      <point x="427" y="250" type="curve" smooth="yes"/>
      <point x="436" y="301"/>
      <point x="371" y="310"/>
      <point x="316" y="310" type="curve" smooth="yes"/>
      <point x="269" y="310"/>
      <point x="178" y="304"/>
      <point x="102" y="277" type="curve"/>
      <point x="278" y="373" type="line"/>
      <point x="345" y="433"/>
      <point x="410" y="445"/>
      <point x="489" y="445" type="curve" smooth="yes"/>
      <point x="594" y="445"/>
      <point x="691" y="369"/>
    </contour>
    <contour>
      <point x="403" y="510" type="line"/>
      <point x="315" y="357" type="line"/>
      <point x="102" y="277" type="line"/>
      <point x="277" y="700" type="line"/>
      <point x="727" y="700" type="line"/>
      <point x="694" y="510" type="line"/>
    </contour>
  </outline>
</glyph>
<glyph name="a.alt" format="1">
  <advance width="645"/>
  <outline>
    <contour>
      <point x="481" y="460" type="line"/>
      <point x="676" y="460" type="line"/>
      <point x="595" y="0" type="line"/>
      <point x="400" y="0" type="line"/>
    </contour>
    <contour>
      <point x="71" y="230" type="curve" smooth="yes"/>
      <point x="101" y="399"/>
      <point x="223" y="480"/>
      <point x="328" y="480" type="curve" smooth="yes"/>
      <point x="453" y="480"/>
      <point x="503" y="379"/>
      <point x="477" y="230" type="curve" smooth="yes"/>
      <point x="451" y="81"/>
      <point x="364" y="-20"/>
      <point x="239" y="-20" type="curve" smooth="yes"/>
      <point x="134" y="-20"/>
      <point x="41" y="61"/>
    </contour>
    <contour>
      <point x="277" y="230" type="curve" smooth="yes"/>
      <point x="268" y="179"/>
      <point x="299" y="150"/>
      <point x="344" y="150" type="curve" smooth="yes"/>
      <point x="384" y="150"/>
      <point x="431" y="174"/>
      <point x="441" y="230" type="curve" smooth="yes"/>
      <point x="451" y="286"/>
      <point x="413" y="310"/>
      <point x="373" y="310" type="curve" smooth="yes"/>
      <point x="328" y="310"/>
      <point x="286" y="281"/>
    </contour>
  </outline>
</glyph>
<glyph name="atilde.alt" format="1">
  <advance width="645"/>
  <outline>
    <contour>
      <point x="481" y="460" type="line"/>
      <point x="676" y="460" type="line"/>
      <point x="595" y="0" type="line"/>
      <point x="400" y="0" type="line"/>
    </contour>
    <contour>
      <point x="71" y="230" type="curve" smooth="yes"/>
      <point x="101" y="399"/>
      <point x="223" y="480"/>
      <point x="328" y="480" type="curve" smooth="yes"/>
      <point x="453" y="480"/>
      <point x="503" y="379"/>
      <point x="477" y="230" type="curve" smooth="yes"/>
      <point x="451" y="81"/>
      <point x="364" y="-20"/>
      <point x="239" y="-20" type="curve" smooth="yes"/>
      <point x="134" y="-20"/>
      <point x="41" y="61"/>
    </contour>
    <contour>
      <point x="277" y="230" type="curve" smooth="yes"/>
      <point x="268" y="179"/>
      <point x="299" y="150"/>
      <point x="344" y="150" type="curve" smooth="yes"/>
      <point x="384" y="150"/>
      <point x="431" y="174"/>
      <point x="441" y="230" type="curve" smooth="yes"/>
      <point x="451" y="286"/>
      <point x="413" y="310"/>
      <point x="373" y="310" type="curve" smooth="yes"/>
      <point x="328" y="310"/>
      <point x="286" y="281"/>
    </contour>
    <contour>
      <point x="237" y="617" type="line"/>
      <point x="256" y="666"/>
      <point x="309" y="719"/>
      <point x="384" y="719" type="curve" smooth="yes"/>
      <point x="451" y="719"/>
      <point x="460" y="664"/>
      <point x="518" y="664" type="curve" smooth="yes"/>
      <point x="547" y="664"/>
      <point x="573" y="688"/>
      <point x="599" y="720" type="curve"/>
      <point x="669" y="627" type="line"/>
      <point x="646" y="590"/>
      <point x="571" y="534"/>
      <point x="501" y="534" type="curve" smooth="yes"/>
      <point x="446" y="534"/>
      <point x="412" y="591"/>
      <point x="360" y="591" type="curve" smooth="yes"/>
      <point x="324" y="591"/>
      <point x="309" y="555"/>
      <point x="306" y="540" type="curve"/>
    </contour>
  </outline>
</glyph>
